<?xml version="1.0" encoding="UTF-8"?>
<svg xmlns="http://www.w3.org/2000/svg" xmlns:xlink="http://www.w3.org/1999/xlink" width="35px" height="35px" viewBox="0 0 35 35" version="1.1">
<g id="surface1">
<path style=" stroke:none;fill-rule:nonzero;fill:rgb(0%,0%,0%);fill-opacity:1;" d="M 34.265625 19.050781 L 21.765625 29.988281 C 21.28125 30.414062 20.640625 30.625 20 30.625 C 19.359375 30.625 18.71875 30.414062 18.234375 29.988281 C 17.257812 29.128906 17.257812 27.746094 18.234375 26.886719 L 26.46875 19.6875 L 2.5 19.6875 C 1.121094 19.6875 0 18.710938 0 17.5 C 0 16.289062 1.121094 15.3125 2.5 15.3125 L 26.46875 15.3125 L 18.234375 8.113281 C 17.257812 7.253906 17.257812 5.871094 18.234375 5.011719 C 19.210938 4.15625 20.792969 4.15625 21.769531 5.011719 L 34.269531 15.949219 C 35.242188 16.808594 35.242188 18.191406 34.265625 19.050781 Z M 34.265625 19.050781 "/>
</g>
</svg>
