<?xml version="1.0" encoding="UTF-8"?>
<svg xmlns="http://www.w3.org/2000/svg" xmlns:xlink="http://www.w3.org/1999/xlink" width="35px" height="35px" viewBox="0 0 35 35" version="1.1">
<g id="surface1">
<path style=" stroke:none;fill-rule:nonzero;fill:rgb(0%,0%,0%);fill-opacity:1;" d="M 34.929688 17.5 C 34.929688 18.710938 33.882812 19.6875 32.5 19.6875 L 8.539062 19.6875 L 16.773438 26.886719 C 17.75 27.746094 17.75 29.128906 16.773438 29.988281 C 16.28125 30.414062 15.640625 30.625 15 30.625 C 14.359375 30.625 13.71875 30.414062 13.234375 29.988281 L 0.734375 19.050781 C -0.242188 18.191406 -0.242188 16.808594 0.734375 15.949219 L 13.234375 5.011719 C 14.210938 4.164062 15.792969 4.164062 16.769531 5.011719 C 17.746094 5.871094 17.746094 7.253906 16.769531 8.113281 L 8.539062 15.3125 L 32.5 15.3125 C 33.882812 15.3125 34.929688 16.289062 34.929688 17.5 Z M 34.929688 17.5 "/>
</g>
</svg>
